<svg width="12" height="12" viewBox="0 0 12 12" fill="none" xmlns="http://www.w3.org/2000/svg">
<path d="M11.8534 11.1465L8.4409 7.734C9.1019 6.91751 9.49989 5.88 9.49989 4.75001C9.49989 2.13101 7.3689 0 4.74993 0C2.13096 0 0 2.13098 0 4.74998C0 7.36898 2.13098 9.49999 4.74996 9.49999C5.87994 9.49999 6.91743 9.102 7.73392 8.44099L11.1464 11.8535C11.2439 11.951 11.3719 12 11.4999 12C11.6279 12 11.7559 11.951 11.8534 11.8535C12.0489 11.658 12.0489 11.342 11.8534 11.1465ZM4.74996 8.49998C2.68197 8.49998 0.999997 6.81799 0.999997 4.74998C0.999997 2.68198 2.68197 0.999984 4.74996 0.999984C6.81794 0.999984 8.49991 2.68198 8.49991 4.74998C8.49991 6.81799 6.81792 8.49998 4.74996 8.49998Z" fill="#1E3173"/>
</svg>
